<?xml version="1.0" encoding="UTF-8" standalone="no"?>
<svg
   xmlns:dc="http://purl.org/dc/elements/1.1/"
   xmlns:cc="http://creativecommons.org/ns#"
   xmlns:rdf="http://www.w3.org/1999/02/22-rdf-syntax-ns#"
   xmlns:svg="http://www.w3.org/2000/svg"
   xmlns="http://www.w3.org/2000/svg"
   viewBox="0 0 1000 1333.3333"
   height="1333.3333"
   width="1000"
   id="svg102"
   version="1.1">
  <metadata
     id="metadata108">
    <rdf:RDF>
      <cc:Work
         rdf:about="">
        <dc:format>image/svg+xml</dc:format>
        <dc:type
           rdf:resource="http://purl.org/dc/dcmitype/StillImage" />
        <dc:title></dc:title>
      </cc:Work>
    </rdf:RDF>
  </metadata>
  <defs
     id="defs106" />
  <g
     transform="translate(2764.3676,729.88501)"
     id="g4810">
    <path
       id="path4787"
       d="m -2208.1334,-296.51407 180.5429,142.48062 68.0692,53.84577 57.9096,44.702155 c 0,0 42.9931,39.39397 43.6862,64.0053595 0.3818,13.5576505 2.5593,27.0855405 2.0319,40.6383105 -1.447,37.18823 -14.2234,110.739415 -14.2234,110.739415 0,0 -3.396,39.19641 -16.2553,40.63833 -35.1335,3.93954 -112.7713,-10.15959 -112.7713,-10.15959 l -391.6157,-99.143055 c 0,0 -154.5056,-34.99904 -175.2889,-50.20276 -9.0998,-6.65681 -16.9525,-32.3239605 -16.9525,-32.3239605 0,0 -22.6646,-77.9844295 -30.9208,-117.8635045 -3.3072,-15.97473 -1.3378,-36.05857 0.1233,-48.9403 1.6074,-14.17144 -29.8452,-11.35463 -34.5426,-64.00535 -1.6475,-18.46615 -1.7546,-39.86369 9.1436,-54.86173 17.162,-23.61809 30.4113,-21.84377 41.9519,-13.03314 34.4475,26.29886 30.8865,62.81582 41.48,89.70187 2.4104,6.1177 14.6548,14.87306 21.2118,12.73557 119.9338,-39.09674 326.4201,-108.95401 326.4201,-108.95401 z"
       style="fill:#c69c6c;fill-opacity:1;stroke:#000000;stroke-width:10;stroke-linecap:butt;stroke-linejoin:miter;stroke-miterlimit:4;stroke-dasharray:none;stroke-opacity:1" />
    <path
       id="path4789"
       d="m -2540.6492,-131.68237 c 30.7775,7.39907 165.6011,50.797905 165.6011,50.797905 l 193.032,60.95747 134.1065,36.57449 62.9894,15.23937 76.1968,13.20745 c 0,0 19.4883,4.40003 49.3823,10.52934 4.0085,0.8219 -1.9809,45.709345 -1.9809,45.709345 0,0 -4.2994,48.46036 -12.1404,50.13933 -15.1331,3.2404 -60.2684,3.11382 -89.9783,-1.66214 -78.3718,-12.59853 -190.2518,-47.27816 -190.2518,-47.27816 l -257.8068,-65.790755 c 0,0 -82.3196,-17.58506 -108.954,-33.1779705 -9.4928,-5.55746 -16.9893,-38.4155495 -20.74,-59.2741895 -4.0196,-22.35395 -9.079,-78.284915 0.5441,-75.971485 z"
       style="fill:#bf4f89;fill-opacity:1;stroke:#000000;stroke-width:10;stroke-linecap:butt;stroke-linejoin:miter;stroke-miterlimit:4;stroke-dasharray:none;stroke-opacity:1" />
    <path
       id="path4791"
       d="m -2599.7207,-292.48353 c -0.1447,0.017 32.5823,-27.77009 81.1782,-1.43677 10.4128,5.64256 16.5339,-45.53996 102.0114,-30.8908 19.3854,3.32227 21.8285,-63.03092 117.0977,-25.14368 9.0997,3.61881 22.7453,-28.82729 50.2874,-20.11494 16.5176,5.22498 34.4628,23.45548 38.7931,40.22988 4.1999,16.26908 2.2195,34.29442 2.2195,33.32577 l -327.4762,108.49478 c 0,0 -27.1106,-2.12663 -26.9291,-22.51663 0.473,-53.13948 -37.182,-81.94761 -37.182,-81.94761 z"
       style="fill:#a67c52;fill-opacity:1;stroke:#000000;stroke-width:10;stroke-linecap:butt;stroke-linejoin:miter;stroke-miterlimit:4;stroke-dasharray:none;stroke-opacity:1" />
    <path
       id="path4793"
       d="m -2136.3587,-241.47778 48.1322,-51.72413 -70.4023,-31.6092 228.4483,-138.64942 -69.6839,124.28161 71.1207,28.01724 -108.477,146.55171 z"
       style="fill:#ffe680;stroke:#000000;stroke-width:10;stroke-linecap:butt;stroke-linejoin:miter;stroke-miterlimit:4;stroke-dasharray:none;stroke-opacity:1" />
    <path
       id="path4795"
       d="m -2457.4793,73.895775 -91.954,86.206885 85.4885,30.17241 -65.3736,162.35632 239.2241,-181.75287 -73.2758,-27.29885 35.9195,-36.63792 z"
       style="fill:#ffe680;stroke:#000000;stroke-width:10;stroke-linecap:butt;stroke-linejoin:miter;stroke-miterlimit:4;stroke-dasharray:none;stroke-opacity:1" />
    <path
       id="path4797"
       d="M -2539.6096,-188.01929 -1861.5385,6.1640645"
       style="fill:none;stroke:#000000;stroke-width:10;stroke-linecap:butt;stroke-linejoin:miter;stroke-miterlimit:4;stroke-dasharray:none;stroke-opacity:1" />
  </g>
  <g
     style="display:none"
     id="layer1" />
</svg>
